<?xml version="1.0" encoding="UTF-8" standalone="no"?>
<!-- Created with Inkscape (http://www.inkscape.org/) -->

<svg
   xmlns:osb="http://www.openswatchbook.org/uri/2009/osb"
   xmlns:dc="http://purl.org/dc/elements/1.1/"
   xmlns:cc="http://creativecommons.org/ns#"
   xmlns:rdf="http://www.w3.org/1999/02/22-rdf-syntax-ns#"
   xmlns:svg="http://www.w3.org/2000/svg"
   xmlns="http://www.w3.org/2000/svg"
   xmlns:sodipodi="http://sodipodi.sourceforge.net/DTD/sodipodi-0.dtd"
   xmlns:inkscape="http://www.inkscape.org/namespaces/inkscape"
   width="500"
   height="510"
   id="svg2"
   version="1.1"
   inkscape:version="0.48.2 r9819"
   sodipodi:docname="convex.svg">
  <sodipodi:namedview
     id="base"
     pagecolor="#ffffff"
     bordercolor="#666666"
     borderopacity="1.0"
     inkscape:pageopacity="0.0"
     inkscape:pageshadow="2"
     inkscape:zoom="0.76779658"
     inkscape:cx="-195.96698"
     inkscape:cy="309.89677"
     inkscape:document-units="px"
     inkscape:current-layer="layer2"
     showgrid="false"
     inkscape:window-width="1280"
     inkscape:window-height="752"
     inkscape:window-x="1234"
     inkscape:window-y="119"
     inkscape:window-maximized="0" />
  <defs
     id="defs4">
    <marker
       inkscape:stockid="EmptyTriangleOutL"
       orient="auto"
       refY="0"
       refX="0"
       id="EmptyTriangleOutL"
       style="overflow:visible">
      <path
         id="path5072"
         d="m 5.77,0 -8.65,5 0,-10 8.65,5 z"
         style="fill:#ffffff;fill-rule:evenodd;stroke:#000000;stroke-width:1pt"
         transform="matrix(0.8,0,0,0.8,-4.8,0)"
         inkscape:connector-curvature="0" />
    </marker>
    <marker
       inkscape:stockid="Tail"
       orient="auto"
       refY="0"
       refX="0"
       id="Tail"
       style="overflow:visible">
      <g
         id="g4948"
         transform="scale(-1.2,-1.2)">
        <path
           id="path4950"
           d="M -3.8048674,-3.9585227 0.54352094,0"
           style="fill:none;stroke:#000000;stroke-width:0.80000001;stroke-linecap:round"
           inkscape:connector-curvature="0" />
        <path
           id="path4952"
           d="M -1.2866832,-3.9585227 3.0617053,0"
           style="fill:none;stroke:#000000;stroke-width:0.80000001;stroke-linecap:round"
           inkscape:connector-curvature="0" />
        <path
           id="path4954"
           d="M 1.3053582,-3.9585227 5.6537466,0"
           style="fill:none;stroke:#000000;stroke-width:0.80000001;stroke-linecap:round"
           inkscape:connector-curvature="0" />
        <path
           id="path4956"
           d="M -3.8048674,4.1775838 0.54352094,0.21974226"
           style="fill:none;stroke:#000000;stroke-width:0.80000001;stroke-linecap:round"
           inkscape:connector-curvature="0" />
        <path
           id="path4958"
           d="M -1.2866832,4.1775838 3.0617053,0.21974226"
           style="fill:none;stroke:#000000;stroke-width:0.80000001;stroke-linecap:round"
           inkscape:connector-curvature="0" />
        <path
           id="path4960"
           d="M 1.3053582,4.1775838 5.6537466,0.21974226"
           style="fill:none;stroke:#000000;stroke-width:0.80000001;stroke-linecap:round"
           inkscape:connector-curvature="0" />
      </g>
    </marker>
    <marker
       inkscape:stockid="Arrow1Lend"
       orient="auto"
       refY="0"
       refX="0"
       id="Arrow1Lend"
       style="overflow:visible">
      <path
         id="path4915"
         d="M 0,0 5,-5 -12.5,0 5,5 0,0 z"
         style="fill-rule:evenodd;stroke:#000000;stroke-width:1pt"
         transform="matrix(-0.8,0,0,-0.8,-10,0)"
         inkscape:connector-curvature="0" />
    </marker>
    <marker
       inkscape:stockid="Arrow1Mend"
       orient="auto"
       refY="0"
       refX="0"
       id="Arrow1Mend"
       style="overflow:visible">
      <path
         id="path4921"
         d="M 0,0 5,-5 -12.5,0 5,5 0,0 z"
         style="fill-rule:evenodd;stroke:#000000;stroke-width:1pt"
         transform="matrix(-0.4,0,0,-0.4,-4,0)"
         inkscape:connector-curvature="0" />
    </marker>
    <linearGradient
       id="linearGradient6482"
       osb:paint="solid">
      <stop
         style="stop-color:#000000;stop-opacity:1;"
         offset="0"
         id="stop6484" />
    </linearGradient>
    <marker
       inkscape:stockid="TriangleOutL"
       orient="auto"
       refY="0"
       refX="0"
       id="TriangleOutL"
       style="overflow:visible">
      <path
         id="path5054"
         d="m 5.77,0 -8.65,5 0,-10 8.65,5 z"
         style="fill-rule:evenodd;stroke:#000000;stroke-width:1pt"
         transform="scale(0.8,0.8)"
         inkscape:connector-curvature="0" />
    </marker>
    <marker
       inkscape:stockid="Arrow2Lend"
       orient="auto"
       refY="0"
       refX="0"
       id="Arrow2Lend"
       style="overflow:visible">
      <path
         id="path4933"
         style="fill-rule:evenodd;stroke-width:0.625;stroke-linejoin:round"
         d="M 8.7185878,4.0337352 -2.2072895,0.01601326 8.7185884,-4.0017078 c -1.7454984,2.3720609 -1.7354408,5.6174519 -6e-7,8.035443 z"
         transform="matrix(-1.1,0,0,-1.1,-1.1,0)"
         inkscape:connector-curvature="0" />
    </marker>
    <clipPath
       clipPathUnits="userSpaceOnUse"
       id="clipPath11921">
      <rect
         style="fill:none;stroke-width:1.29999995;stroke-miterlimit:4;stroke-dasharray:5.19999981, 2.5999999, 1.29999995, 2.5999999;stroke-dashoffset:0"
         id="rect11923"
         width="1211.9452"
         height="1236.2449"
         x="-139.7513"
         y="42.475098"
         ry="0" />
    </clipPath>
    <clipPath
       clipPathUnits="userSpaceOnUse"
       id="clipPath11925">
      <rect
         style="fill:none;stroke-width:1.29999995;stroke-miterlimit:4;stroke-dasharray:5.19999981, 2.5999999, 1.29999995, 2.5999999;stroke-dashoffset:0"
         id="rect11927"
         width="756.52771"
         height="771.69623"
         x="240.39465"
         y="-267.84863"
         ry="0" />
    </clipPath>
    <clipPath
       clipPathUnits="userSpaceOnUse"
       id="clipPath11929">
      <rect
         style="fill:none;stroke-width:1.29999995;stroke-miterlimit:4;stroke-dasharray:5.19999981, 2.5999999, 1.29999995, 2.5999999;stroke-dashoffset:0"
         id="rect11931"
         width="1188.9218"
         height="1212.7598"
         x="-556.94226"
         y="-293.50949"
         ry="0" />
    </clipPath>
    <clipPath
       clipPathUnits="userSpaceOnUse"
       id="clipPath11933">
      <rect
         style="fill:none;stroke-width:1.29999995;stroke-miterlimit:4;stroke-dasharray:5.19999981, 2.5999999, 1.29999995, 2.5999999;stroke-dashoffset:0"
         id="rect11935"
         width="828.69135"
         height="845.30676"
         x="223.54489"
         y="132.89755"
         ry="0" />
    </clipPath>
    <clipPath
       clipPathUnits="userSpaceOnUse"
       id="clipPath11937">
      <rect
         style="fill:none;stroke-width:1.29999995;stroke-miterlimit:4;stroke-dasharray:5.19999981, 2.5999999, 1.29999995, 2.5999999;stroke-dashoffset:0"
         id="rect11939"
         width="828.69135"
         height="845.30676"
         x="-437.22287"
         y="124.94621"
         ry="0" />
    </clipPath>
    <clipPath
       clipPathUnits="userSpaceOnUse"
       id="clipPath11941">
      <rect
         style="fill:none;stroke-width:1.29999995;stroke-miterlimit:4;stroke-dasharray:5.19999981, 2.5999999, 1.29999995, 2.5999999;stroke-dashoffset:0"
         id="rect11943"
         width="704.82233"
         height="718.9541"
         x="-207.0757"
         y="177.05516"
         ry="0" />
    </clipPath>
    <clipPath
       clipPathUnits="userSpaceOnUse"
       id="clipPath11945">
      <rect
         style="fill:none;stroke-width:1.29999995;stroke-miterlimit:4;stroke-dasharray:5.19999981, 2.5999999, 1.29999995, 2.5999999;stroke-dashoffset:0"
         id="rect11947"
         width="519.66888"
         height="530.08832"
         x="104.19427"
         y="139.35994"
         ry="0" />
    </clipPath>
    <clipPath
       clipPathUnits="userSpaceOnUse"
       id="clipPath11949">
      <rect
         style="fill:none;stroke-width:1.29999995;stroke-miterlimit:4;stroke-dasharray:5.19999981, 2.5999999, 1.29999995, 2.5999999;stroke-dashoffset:0"
         id="rect11951"
         width="855.70343"
         height="872.86041"
         x="-242.4808"
         y="-45.96669"
         ry="0" />
    </clipPath>
    <clipPath
       clipPathUnits="userSpaceOnUse"
       id="clipPath11953">
      <rect
         style="fill:none;stroke-width:1.29999995;stroke-miterlimit:4;stroke-dasharray:5.19999981, 2.5999999, 1.29999995, 2.5999999;stroke-dashoffset:0"
         id="rect11955"
         width="519.66888"
         height="530.08832"
         x="104.19427"
         y="139.35994"
         ry="0" />
    </clipPath>
    <clipPath
       clipPathUnits="userSpaceOnUse"
       id="clipPath11957">
      <rect
         style="fill:none;stroke-width:1.29999995;stroke-miterlimit:4;stroke-dasharray:5.19999981, 2.5999999, 1.29999995, 2.5999999;stroke-dashoffset:0"
         id="rect11959"
         width="519.66888"
         height="530.08832"
         x="104.19427"
         y="139.35994"
         ry="0" />
    </clipPath>
    <clipPath
       clipPathUnits="userSpaceOnUse"
       id="clipPath11961">
      <rect
         style="fill:none;stroke-width:1.29999995;stroke-miterlimit:4;stroke-dasharray:5.19999981, 2.5999999, 1.29999995, 2.5999999;stroke-dashoffset:0"
         id="rect11963"
         width="519.66888"
         height="530.08832"
         x="104.19427"
         y="139.35994"
         ry="0" />
    </clipPath>
    <clipPath
       clipPathUnits="userSpaceOnUse"
       id="clipPath11965">
      <rect
         style="fill:none;stroke-width:1.29999995;stroke-miterlimit:4;stroke-dasharray:5.19999981, 2.5999999, 1.29999995, 2.5999999;stroke-dashoffset:0"
         id="rect11967"
         width="519.66888"
         height="530.08832"
         x="104.19427"
         y="139.35994"
         ry="0" />
    </clipPath>
    <clipPath
       clipPathUnits="userSpaceOnUse"
       id="clipPath11969">
      <rect
         style="fill:none;stroke-width:1.29999995;stroke-miterlimit:4;stroke-dasharray:5.19999981, 2.5999999, 1.29999995, 2.5999999;stroke-dashoffset:0"
         id="rect11971"
         width="519.66888"
         height="530.08832"
         x="104.19427"
         y="139.35994"
         ry="0" />
    </clipPath>
    <clipPath
       clipPathUnits="userSpaceOnUse"
       id="clipPath11973">
      <rect
         style="fill:none;stroke-width:1.29999995;stroke-miterlimit:4;stroke-dasharray:5.19999981, 2.5999999, 1.29999995, 2.5999999;stroke-dashoffset:0"
         id="rect11975"
         width="519.66888"
         height="530.08832"
         x="104.19427"
         y="139.35994"
         ry="0" />
    </clipPath>
  </defs>
  <metadata
     id="metadata7">
    <rdf:RDF>
      <cc:Work
         rdf:about="">
        <dc:format>image/svg+xml</dc:format>
        <dc:type
           rdf:resource="http://purl.org/dc/dcmitype/StillImage" />
        <dc:title />
      </cc:Work>
    </rdf:RDF>
  </metadata>
  <g
     inkscape:groupmode="layer"
     id="layer2"
     inkscape:label="Layer">
    <path
       style="fill:#f4e918;fill-opacity:1;stroke:#000000;stroke-width:1.27788507999999990;stroke-linecap:round;stroke-miterlimit:4;stroke-opacity:1;stroke-dasharray:none"
       inkscape:transform-center-x="-1.4995169"
       inkscape:transform-center-y="-6.6647583"
       d="M 376.30521,303.65122 C 324.75688,395.44883 256.11165,392.73078 160.49186,345.53911 64.872085,298.34743 75.273909,298.80155 53.964813,199.36103 31.298337,93.586296 50.121922,86.644632 69.97267,70.704897 158.89535,-0.69814741 136.90533,0.01495671 239.88176,24.908451 342.8582,49.801929 333.73299,61.759939 379.01184,146.63402 c 45.27885,84.87411 48.84171,65.21957 -2.70663,157.0172 z"
       id="path4374"
       inkscape:connector-curvature="0"
       sodipodi:nodetypes="sssssss" />
    <text
       xml:space="preserve"
       style="font-size:40px;font-style:normal;font-weight:normal;line-height:125%;letter-spacing:0px;word-spacing:0px;fill:#000000;fill-opacity:1;stroke:none;font-family:Sans"
       x="70.331123"
       y="440.97128"
       id="text4333"
       sodipodi:linespacing="125%"><tspan
         sodipodi:role="line"
         id="tspan4335"
         x="70.331123"
         y="440.97128">EVENT</tspan></text>
    <text
       sodipodi:linespacing="125%"
       id="text4337"
       y="440.97128"
       x="70.331123"
       style="font-size:40px;font-style:normal;font-weight:normal;line-height:125%;letter-spacing:0px;word-spacing:0px;fill:#000000;fill-opacity:1;stroke:none;font-family:Sans"
       xml:space="preserve"><tspan
         y="440.97128"
         x="70.331123"
         id="tspan4339"
         sodipodi:role="line" /></text>
  </g>
  <g
     id="layer1"
     inkscape:groupmode="layer"
     inkscape:label="Layer 1"
     transform="translate(0,-542.36218)">
    <path
       style="fill:none;stroke:#000000;stroke-width:1.60000002;stroke-linecap:butt;stroke-linejoin:miter;stroke-miterlimit:4;stroke-opacity:1;stroke-dasharray:none;marker-end:url(#Arrow2Lend)"
       d="m 335.24791,397.93361 107.94346,0"
       id="path5898"
       inkscape:connector-curvature="0"
       clip-path="url(#clipPath11969)"
       transform="matrix(0.9517974,0,0,0.98220874,-141.38601,420.56248)" />
    <path
       inkscape:connector-curvature="0"
       id="path6488"
       d="M 336.1513,398.30454 489.67829,290.5873"
       style="fill:none;stroke:#000000;stroke-width:1.5;stroke-linecap:butt;stroke-linejoin:miter;stroke-miterlimit:4;stroke-opacity:1;stroke-dasharray:none;marker-end:url(#Arrow2Lend)"
       clip-path="url(#clipPath11965)"
       transform="matrix(0.9517974,0,0,0.98220874,-141.38601,420.56248)" />
    <rect
       style="fill:none;stroke-width:1;stroke-miterlimit:4;stroke-dasharray:3, 3;stroke-dashoffset:0"
       id="rect6496"
       width="17"
       height="15"
       x="519"
       y="384.36218"
       clip-path="url(#clipPath11961)"
       transform="matrix(0.9517974,0,0,0.98220874,-141.38601,420.56248)" />
    <path
       style="fill:none;stroke:#000000;stroke-width:1.29999995;stroke-linecap:butt;stroke-linejoin:miter;stroke-miterlimit:4;stroke-opacity:1;stroke-dasharray:5.2, 5.2;stroke-dashoffset:0;marker-end:url(#Arrow1Mend)"
       d="m 336.23799,397.37053 146.52402,0.98315"
       id="path6686"
       inkscape:connector-curvature="0"
       clip-path="url(#clipPath11957)"
       transform="matrix(0.9517974,0,0,0.98220874,-141.38601,420.56248)" />
    <path
       inkscape:connector-curvature="0"
       id="path8632"
       d="m 200.14782,288.51767 356.70436,0.68793"
       style="fill:none;stroke:#000000;stroke-width:1.29999995;stroke-linecap:butt;stroke-linejoin:miter;stroke-miterlimit:4;stroke-opacity:1;stroke-dasharray:5.19999981, 2.5999999, 1.29999995, 2.5999999;stroke-dashoffset:0;marker-end:none"
       clip-path="url(#clipPath11953)"
       transform="matrix(0.9517974,0,0,0.98220874,-141.38601,420.56248)" />
    <g
       transform="matrix(0.57802677,0,0,0.59649558,97.946207,584.86196)"
       id="g10448"
       clip-path="url(#clipPath11949)">
      <g
         style="font-style:normal;font-variant:normal;font-weight:normal;font-stretch:normal;letter-spacing:normal;word-spacing:normal;text-anchor:start;fill:none;stroke:#000000;stroke-linecap:butt;stroke-linejoin:miter;stroke-miterlimit:10.43299961;stroke-opacity:1;stroke-dasharray:none;stroke-dashoffset:0"
         id="content"
         transform="matrix(1.0629921,0,0,-1.0629921,-186.02362,789.27165)"
         xml:space="preserve"
         stroke-miterlimit="10.433"
         font-style="normal"
         font-variant="normal"
         font-weight="normal"
         font-stretch="normal"
         font-size-adjust="none"
         letter-spacing="normal"
         word-spacing="normal"><path
           style="fill:#000000;stroke-width:0"
           inkscape:connector-curvature="0"
           d="m 480.31,419.8 0.04,0.16 0.05,0.16 0.04,0.16 0.04,0.16 0.03,0.15 0.03,0.16 0.03,0.16 0.03,0.17 0.03,0.16 0.02,0.18 0.01,0.09 0.01,0.09 0,0.1 0.01,0.1 0.01,0.1 0,0.1 0.01,0.11 0,0.1 0,0.12 0.01,0.11 0,0.12 0,0.13 c 0,3.24 -2,5.33 -5.73,5.33 -3.94,0 -6.53,-2.59 -7.72,-4.34 -0.25,2.84 -2.34,4.34 -4.58,4.34 -2.3,0 -3.24,-1.95 -3.69,-2.84 -0.9,-1.7 -1.54,-4.68 -1.54,-4.83 0,-0.5 0.49,-0.5 0.59,-0.5 0.5,0 0.55,0.05 0.85,1.14 0.84,3.54 1.84,5.93 3.64,5.93 0.84,0 1.54,-0.4 1.54,-2.29 0,-1.04 -0.15,-1.59 -0.8,-4.18 l -2.89,-11.51 c -0.15,-0.75 -0.45,-1.89 -0.45,-2.14 0,-0.9 0.7,-1.35 1.45,-1.35 0.6,0 1.5,0.4 1.84,1.4 0.05,0.1 0.65,2.44 0.95,3.68 l 1.1,4.49 c 0.29,1.09 0.59,2.19 0.84,3.34 0.1,0.29 0.5,1.94 0.55,2.23 0.15,0.45 1.7,3.24 3.39,4.59 1.09,0.8 2.64,1.74 4.78,1.74 2.14,0 2.69,-1.69 2.69,-3.49 0,-0.25 0,-1.14 -0.5,-3.13 l -5.68,-22.92 c -0.15,-0.59 -0.15,-0.7 -0.15,-0.79 0,-0.75 0.55,-1.35 1.4,-1.35 1.54,0 1.89,1.44 2.04,1.99 z"
           id="path10451" /></g>    </g>
    <flowRoot
       style="font-size:40px;font-style:normal;font-weight:normal;line-height:125%;letter-spacing:0px;word-spacing:0px;fill:#000000;fill-opacity:1;stroke:none;font-family:Sans"
       id="flowRoot10486"
       xml:space="preserve"><flowRegion
         id="flowRegion10488"><rect
           y="350.36218"
           x="311"
           height="44"
           width="51"
           id="rect10490" /></flowRegion><flowPara
         id="flowPara10492" /></flowRoot>    <path
       inkscape:connector-curvature="0"
       id="path10692"
       d="m 335.0058,393.61086 1.0247,-102.0752"
       style="fill:none;stroke:#000000;stroke-width:1.29999995;stroke-linecap:butt;stroke-linejoin:miter;stroke-miterlimit:4;stroke-opacity:1;stroke-dasharray:5.2, 5.2;stroke-dashoffset:0;marker-end:url(#Arrow1Mend)"
       clip-path="url(#clipPath11945)"
       transform="matrix(0.9517974,0,0,0.98220874,-141.38601,420.56248)" />
    <g
       transform="matrix(0.70176477,0,0,0.7241872,103.10425,429.22196)"
       id="g11019"
       clip-path="url(#clipPath11941)">
      <g
         style="font-style:normal;font-variant:normal;font-weight:normal;font-stretch:normal;letter-spacing:normal;word-spacing:normal;text-anchor:start;fill:none;stroke:#000000;stroke-linecap:butt;stroke-linejoin:miter;stroke-miterlimit:10.43299961;stroke-opacity:1;stroke-dasharray:none;stroke-dashoffset:0"
         id="g11021"
         transform="matrix(1.0629921,0,0,-1.0629921,-186.02362,789.27165)"
         xml:space="preserve"
         stroke-miterlimit="10.433"
         font-style="normal"
         font-variant="normal"
         font-weight="normal"
         font-stretch="normal"
         font-size-adjust="none"
         letter-spacing="normal"
         word-spacing="normal"><path
           style="fill:#000000;stroke-width:0"
           inkscape:connector-curvature="0"
           d="m 480.21,424.98 0.01,0.03 0.01,0.03 0.01,0.03 0.01,0.03 0.01,0.06 0.02,0.05 0.01,0.06 0.01,0.04 0.02,0.05 0.01,0.04 0.01,0.04 0.01,0.04 0,0.04 0.01,0.04 0.01,0.03 0,0.03 0.01,0.03 0.01,0.03 0,0.03 0,0.03 0.01,0.03 0,0.02 0,0.06 0.01,0.05 0,0.05 0,0.05 0,0.03 0,0.03 0,0.03 0,0.03 c 0,0.9 -0.7,1.35 -1.45,1.35 -0.5,0 -1.29,-0.3 -1.74,-1.05 -0.1,-0.24 -0.5,-1.79 -0.7,-2.69 -0.34,-1.29 -0.7,-2.64 -0.99,-3.98 l -2.24,-8.97 c -0.2,-0.74 -2.34,-4.23 -5.63,-4.23 -2.54,0 -3.09,2.19 -3.09,4.03 0,2.3 0.84,5.38 2.54,9.77 0.8,2.04 1,2.59 1,3.58 0,2.25 -1.6,4.09 -4.09,4.09 -4.73,0 -6.57,-7.23 -6.57,-7.67 0,-0.5 0.49,-0.5 0.59,-0.5 0.5,0 0.55,0.1 0.8,0.9 1.34,4.68 3.34,6.17 5.03,6.17 0.4,0 1.25,0 1.25,-1.59 0,-1.25 -0.5,-2.54 -0.85,-3.49 -1.99,-5.28 -2.89,-8.12 -2.89,-10.46 0,-4.43 3.14,-5.93 6.08,-5.93 1.94,0 3.63,0.85 5.03,2.25 -0.65,-2.6 -1.25,-5.04 -3.24,-7.68 -1.29,-1.69 -3.19,-3.14 -5.48,-3.14 -0.7,0 -2.94,0.16 -3.79,2.1 0.8,0 1.45,0 2.15,0.59 0.49,0.45 0.99,1.1 0.99,2.05 0,1.54 -1.34,1.74 -1.84,1.74 -1.15,0 -2.79,-0.8 -2.79,-3.24 0,-2.49 2.19,-4.33 5.28,-4.33 5.13,0 10.26,4.53 11.66,10.16 z"
           id="path11023" /></g>    </g>
    <g
       id="g11110"
       transform="matrix(0.59686816,0,0,0.61593898,218.75023,480.48379)"
       clip-path="url(#clipPath11937)">
      <g
         word-spacing="normal"
         letter-spacing="normal"
         font-size-adjust="none"
         font-stretch="normal"
         font-weight="normal"
         font-variant="normal"
         font-style="normal"
         stroke-miterlimit="10.433"
         xml:space="preserve"
         transform="matrix(1.0629921,0,0,-1.0629921,-186.02362,789.27165)"
         id="g11112"
         style="font-style:normal;font-variant:normal;font-weight:normal;font-stretch:normal;letter-spacing:normal;word-spacing:normal;text-anchor:start;fill:none;stroke:#000000;stroke-linecap:butt;stroke-linejoin:miter;stroke-miterlimit:10.43299961;stroke-opacity:1;stroke-dasharray:none;stroke-dashoffset:0"><path
           id="path11114"
           d="m 469.45,410.29 0.07,0.56 0.06,0.56 0.06,0.55 0.06,0.54 0.05,0.53 0.04,0.51 0.05,0.51 0.04,0.49 0.04,0.48 0.03,0.46 0.03,0.45 0.03,0.44 0.03,0.43 0.02,0.41 0.02,0.39 0.02,0.38 0.02,0.36 0.01,0.35 0.01,0.33 0.02,0.32 0,0.29 0.01,0.28 0.01,0.26 0,0.24 0.01,0.23 0,0.2 0,0.19 0,0.16 0,0.14 0,0.13 0,0.1 0.01,0.08 c 0,3.54 0,18.38 -9.07,18.38 -1.69,0 -3.43,-1.39 -3.43,-2.09 0,-0.35 0.24,-0.35 0.94,-0.4 7.27,-0.65 7.87,-12.05 7.87,-17.68 0,-5.03 -0.65,-11.01 -1.24,-14.35 -0.11,-0.6 -0.11,-0.7 -0.11,-0.89 0,-0.25 0,-0.85 0.36,-0.85 0.54,0 12.6,9.21 18.92,18.83 2.54,3.88 4.44,8.32 4.44,11.65 0,4.24 -2.79,5.78 -4.84,5.78 -1.44,0 -2.14,-3.14 -2.14,-3.78 0,-0.75 0.25,-0.75 0.85,-0.8 3.34,-0.4 3.93,-3.04 3.93,-4.23 0,-4.04 -8.66,-14.25 -17.23,-20.92 z"
           inkscape:connector-curvature="0"
           style="fill:#000000;stroke-width:0" /><path
           id="path11116"
           d="m 506.14,431.88 h 10.67 c 0.46,0 1.29,0 1.29,0.84 0,0.87 -0.8,0.87 -1.29,0.87 h -10.67 v 10.7 c 0,0.46 0,1.29 -0.83,1.29 -0.87,0 -0.87,-0.8 -0.87,-1.29 v -10.7 h -10.71 c -0.45,0 -1.29,0 -1.29,-0.84 0,-0.87 0.8,-0.87 1.29,-0.87 h 10.71 v -10.7 c 0,-0.46 0,-1.29 0.83,-1.29 0.87,0 0.87,0.8 0.87,1.29 z"
           inkscape:connector-curvature="0"
           style="fill:#000000;stroke-width:0" /></g>    </g>
    <g
       transform="matrix(0.59686816,0,0,0.61593898,-175.641,475.58625)"
       id="g11162"
       clip-path="url(#clipPath11933)">
      <g
         transform="translate(7.3430237,2.9372095)"
         id="g11217">
        <g
           style="font-style:normal;font-variant:normal;font-weight:normal;font-stretch:normal;letter-spacing:normal;word-spacing:normal;text-anchor:start;fill:none;stroke:#000000;stroke-linecap:butt;stroke-linejoin:miter;stroke-miterlimit:10.43299961;stroke-opacity:1;stroke-dasharray:none;stroke-dashoffset:0"
           id="g11219"
           transform="matrix(1.0629921,0,0,-1.0629921,-186.02362,789.27165)"
           xml:space="preserve"
           stroke-miterlimit="10.433"
           font-style="normal"
           font-variant="normal"
           font-weight="normal"
           font-stretch="normal"
           font-size-adjust="none"
           letter-spacing="normal"
           word-spacing="normal"><path
             style="fill:#000000;stroke-width:0"
             inkscape:connector-curvature="0"
             d="m 469.45,410.29 0.07,0.56 0.06,0.56 0.06,0.55 0.06,0.54 0.05,0.53 0.04,0.51 0.05,0.51 0.04,0.49 0.04,0.48 0.03,0.46 0.03,0.45 0.03,0.44 0.03,0.43 0.02,0.41 0.02,0.39 0.02,0.38 0.02,0.36 0.01,0.35 0.01,0.33 0.02,0.32 0,0.29 0.01,0.28 0.01,0.26 0,0.24 0.01,0.23 0,0.2 0,0.19 0,0.16 0,0.14 0,0.13 0,0.1 0.01,0.08 c 0,3.54 0,18.38 -9.07,18.38 -1.69,0 -3.43,-1.39 -3.43,-2.09 0,-0.35 0.24,-0.35 0.94,-0.4 7.27,-0.65 7.87,-12.05 7.87,-17.68 0,-5.03 -0.65,-11.01 -1.24,-14.35 -0.11,-0.6 -0.11,-0.7 -0.11,-0.89 0,-0.25 0,-0.85 0.36,-0.85 0.54,0 12.6,9.21 18.92,18.83 2.54,3.88 4.44,8.32 4.44,11.65 0,4.24 -2.79,5.78 -4.84,5.78 -1.44,0 -2.14,-3.14 -2.14,-3.78 0,-0.75 0.25,-0.75 0.85,-0.8 3.34,-0.4 3.93,-3.04 3.93,-4.23 0,-4.04 -8.66,-14.25 -17.23,-20.92 z"
             id="path11221" /><path
             style="fill:#000000;stroke-width:0"
             inkscape:connector-curvature="0"
             d="m 515.94,431.88 0.05,0 0.06,0 0.05,0 0.06,0 0.12,0 0.06,0.01 0.05,0 0.06,0.01 0.06,0 0.06,0.01 0.06,0.01 0.05,0.02 0.06,0.01 0.06,0.02 0.05,0.01 0.05,0.02 0.05,0.03 0.05,0.02 0.04,0.03 0.04,0.04 0.05,0.03 0.03,0.04 0.02,0.02 0.02,0.02 0.01,0.03 0.02,0.02 0.01,0.02 0.02,0.03 0.01,0.03 0.01,0.02 0.01,0.03 0.01,0.03 0.01,0.03 0,0.03 0.01,0.04 0.01,0.03 0,0.04 0,0.03 0.01,0.04 0,0.04 c 0,0.87 -0.81,0.87 -1.4,0.87 h -20.78 c -0.56,0 -1.39,0 -1.39,-0.84 0,-0.87 0.8,-0.87 1.39,-0.87 z"
             id="path11223" /></g>      </g>
    </g>
    <g
       id="g11325"
       transform="matrix(0.41602358,0,0,0.42931615,189.48693,683.4514)"
       clip-path="url(#clipPath11929)">
      <g
         word-spacing="normal"
         letter-spacing="normal"
         font-size-adjust="none"
         font-stretch="normal"
         font-weight="normal"
         font-variant="normal"
         font-style="normal"
         stroke-miterlimit="10.433"
         xml:space="preserve"
         transform="matrix(1.0629921,0,0,-1.0629921,-186.02362,789.27165)"
         id="g11327"
         style="font-style:normal;font-variant:normal;font-weight:normal;font-stretch:normal;letter-spacing:normal;word-spacing:normal;text-anchor:start;fill:none;stroke:#000000;stroke-linecap:butt;stroke-linejoin:miter;stroke-miterlimit:10.43299961;stroke-opacity:1;stroke-dasharray:none;stroke-dashoffset:0"><path
           id="path11329"
           d="m 480.31,419.8 0.04,0.16 0.05,0.16 0.04,0.16 0.04,0.16 0.03,0.15 0.03,0.16 0.03,0.16 0.03,0.17 0.03,0.16 0.02,0.18 0.01,0.09 0.01,0.09 0,0.1 0.01,0.1 0.01,0.1 0,0.1 0.01,0.11 0,0.1 0,0.12 0.01,0.11 0,0.12 0,0.13 c 0,3.24 -2,5.33 -5.73,5.33 -3.94,0 -6.53,-2.59 -7.72,-4.34 -0.25,2.84 -2.34,4.34 -4.58,4.34 -2.3,0 -3.24,-1.95 -3.69,-2.84 -0.9,-1.7 -1.54,-4.68 -1.54,-4.83 0,-0.5 0.49,-0.5 0.59,-0.5 0.5,0 0.55,0.05 0.85,1.14 0.84,3.54 1.84,5.93 3.64,5.93 0.84,0 1.54,-0.4 1.54,-2.29 0,-1.04 -0.15,-1.59 -0.8,-4.18 l -2.89,-11.51 c -0.15,-0.75 -0.45,-1.89 -0.45,-2.14 0,-0.9 0.7,-1.35 1.45,-1.35 0.6,0 1.5,0.4 1.84,1.4 0.05,0.1 0.65,2.44 0.95,3.68 l 1.1,4.49 c 0.29,1.09 0.59,2.19 0.84,3.34 0.1,0.29 0.5,1.94 0.55,2.23 0.15,0.45 1.7,3.24 3.39,4.59 1.09,0.8 2.64,1.74 4.78,1.74 2.14,0 2.69,-1.69 2.69,-3.49 0,-0.25 0,-1.14 -0.5,-3.13 l -5.68,-22.92 c -0.15,-0.59 -0.15,-0.7 -0.15,-0.79 0,-0.75 0.55,-1.35 1.4,-1.35 1.54,0 1.89,1.44 2.04,1.99 z"
           inkscape:connector-curvature="0"
           style="fill:#000000;stroke-width:0" /><path
           id="path11331"
           d="m 498.95,445.1 0.01,0.04 0.01,0.05 0.01,0.04 0.01,0.05 0.01,0.04 0.01,0.04 0.01,0.04 0.01,0.04 0.02,0.07 0.02,0.07 0.02,0.06 0.02,0.06 0.02,0.05 0.02,0.05 0.02,0.05 0.02,0.05 0.03,0.04 0.02,0.03 0.03,0.04 0.02,0.03 0.03,0.03 0.03,0.03 0.03,0.02 0.03,0.02 0.04,0.02 0.04,0.02 0.04,0.01 0.04,0.02 0.05,0.01 0.04,0.01 0.06,0.01 0.05,0.01 0.06,0.01 0.06,0.01 0.07,0 0.07,0.01 c 0.17,0.04 1.39,0.04 2.09,0.04 2.13,0 3.03,0 3.9,-0.28 1.57,-0.49 1.64,-1.5 1.64,-2.76 0,-0.55 0,-1.01 -0.24,-2.82 l -0.07,-0.39 c 0,-0.34 0.24,-0.52 0.59,-0.52 0.52,0 0.6,0.32 0.67,0.87 l 0.94,6.66 c 0,0.49 -0.42,0.49 -1.05,0.49 h -21.45 c -0.87,0 -0.94,0 -1.18,-0.73 l -2.2,-6.17 c -0.03,-0.14 -0.17,-0.46 -0.17,-0.63 0,-0.14 0.07,-0.49 0.59,-0.49 0.46,0 0.52,0.18 0.73,0.84 2.03,5.58 3.18,5.93 8.48,5.93 h 1.46 c 1.05,0 1.08,-0.04 1.08,-0.35 0,-0.04 0,-0.21 -0.14,-0.74 l -4.6,-18.34 c -0.31,-1.28 -0.42,-1.64 -4.08,-1.64 -1.25,0 -1.57,0 -1.57,-0.76 0,-0.11 0.07,-0.49 0.59,-0.49 h 12.07 c 0.28,0 0.8,0 0.8,0.77 0,0.48 -0.35,0.48 -1.43,0.48 -0.66,0 -1.36,0.04 -2.02,0.07 -1.19,0.11 -1.26,0.25 -1.26,0.67 0,0.24 0,0.31 0.14,0.8 z"
           inkscape:connector-curvature="0"
           style="fill:#000000;stroke-width:0" /><path
           id="path11333"
           d="m 537.21,424.98 0.01,0.03 0.01,0.03 0.01,0.03 0.01,0.03 0.01,0.06 0.02,0.05 0.01,0.06 0.01,0.04 0.02,0.05 0.01,0.04 0.01,0.04 0.01,0.04 0,0.04 0.01,0.04 0.01,0.03 0,0.03 0.01,0.03 0.01,0.03 0,0.03 0,0.03 0.01,0.03 0,0.02 0,0.06 0.01,0.05 0,0.05 0,0.05 0,0.03 0,0.03 0,0.03 0,0.03 c 0,0.9 -0.7,1.35 -1.44,1.35 -0.5,0 -1.3,-0.3 -1.75,-1.05 -0.1,-0.24 -0.5,-1.79 -0.7,-2.69 -0.34,-1.29 -0.7,-2.64 -0.99,-3.98 l -2.25,-8.97 c -0.19,-0.74 -2.33,-4.23 -5.62,-4.23 -2.54,0 -3.09,2.19 -3.09,4.03 0,2.3 0.84,5.38 2.54,9.77 0.8,2.04 0.99,2.59 0.99,3.58 0,2.25 -1.59,4.09 -4.08,4.09 -4.73,0 -6.57,-7.23 -6.57,-7.67 0,-0.5 0.49,-0.5 0.59,-0.5 0.5,0 0.55,0.1 0.8,0.9 1.34,4.68 3.34,6.17 5.03,6.17 0.4,0 1.25,0 1.25,-1.59 0,-1.25 -0.5,-2.54 -0.85,-3.49 -1.99,-5.28 -2.89,-8.12 -2.89,-10.46 0,-4.43 3.14,-5.93 6.08,-5.93 1.94,0 3.63,0.85 5.03,2.25 -0.65,-2.6 -1.25,-5.04 -3.24,-7.68 -1.29,-1.69 -3.19,-3.14 -5.48,-3.14 -0.7,0 -2.94,0.16 -3.79,2.1 0.8,0 1.45,0 2.15,0.59 0.49,0.45 0.99,1.1 0.99,2.05 0,1.54 -1.34,1.74 -1.84,1.74 -1.15,0 -2.79,-0.8 -2.79,-3.24 0,-2.49 2.19,-4.33 5.28,-4.33 5.13,0 10.26,4.53 11.66,10.16 z"
           inkscape:connector-curvature="0"
           style="fill:#000000;stroke-width:0" /></g>    </g>
    <g
       id="g11591"
       transform="matrix(0.40812035,0,0,0.4211604,14.82116,539.5542)"
       clip-path="url(#clipPath11921)">
      <g
         word-spacing="normal"
         letter-spacing="normal"
         font-size-adjust="none"
         font-stretch="normal"
         font-weight="normal"
         font-variant="normal"
         font-style="normal"
         stroke-miterlimit="10.433"
         xml:space="preserve"
         transform="matrix(1.0629921,0,0,-1.0629921,-186.02362,789.27165)"
         id="g11593"
         style="font-style:normal;font-variant:normal;font-weight:normal;font-stretch:normal;letter-spacing:normal;word-spacing:normal;text-anchor:start;fill:none;stroke:#000000;stroke-linecap:butt;stroke-linejoin:miter;stroke-miterlimit:10.43299961;stroke-opacity:1;stroke-dasharray:none;stroke-dashoffset:0"><path
           id="path11595"
           d="m 471.09,421.74 0.2,1.3 3.39,13.55 c 0.45,1.74 0.55,1.89 2.69,1.89 h 4.78 c 4.14,0 6.78,-1.35 6.78,-4.78 0,-1.95 -1,-6.23 -2.94,-8.02 -2.49,-2.25 -5.48,-2.64 -7.67,-2.64 h -7.03 l -0.2,-1.3 h 8.47 c 7.08,0 14,5.18 14,10.76 0,3.84 -3.29,7.52 -9.81,7.52 h -16.14 c -0.95,0 -1.5,0 -1.5,-0.95 0,-0.59 0.45,-0.59 1.45,-0.59 0.64,0 1.54,-0.05 2.14,-0.1 0.8,-0.1 1.09,-0.25 1.09,-0.8 0,-0.2 -0.04,-0.35 -0.2,-0.94 l -6.67,-26.75 c -0.5,-1.95 -0.6,-2.35 -4.53,-2.35 -0.85,0 -1.4,0 -1.4,-0.94 0,-0.6 0.6,-0.6 0.75,-0.6 h 12.75 c 0.35,0 1,0 1,1 0,0.54 -0.45,0.54 -1.4,0.54 -1.84,0 -3.23,0 -3.23,0.9 0,0.3 0.1,0.55 0.14,0.85 z"
           inkscape:connector-curvature="0"
           style="fill:#000000;stroke-width:0" /><path
           id="path11597"
           d="m 507.49,405.48 0.02,0.09 0.03,0.09 0.01,0.08 0.02,0.07 0.02,0.08 0.02,0.07 0.01,0.06 0.02,0.06 0.01,0.06 0.01,0.06 0.02,0.06 0.01,0.05 0.01,0.05 0.01,0.05 0.01,0.1 0.02,0.1 0.01,0.09 0,0.1 0.01,0.05 0,0.05 0,0.06 0.01,0.05 0,0.06 0,0.06 0,0.06 0,0.07 0,0.07 0,0.07 c 0,0.56 0,2.03 -1.29,3.04 -0.59,0.45 -1.6,0.94 -3.24,0.94 -1.47,0 -3.63,-0.39 -5.9,-3.14 -0.24,2.62 -2.61,3.14 -3.69,3.14 -1.36,0 -2.2,-0.91 -2.76,-1.85 -0.69,-1.19 -1.25,-3.28 -1.25,-3.49 0,-0.45 0.49,-0.45 0.59,-0.45 0.49,0 0.52,0.11 0.77,1.05 0.52,2.02 1.18,3.76 2.54,3.76 0.91,0 1.16,-0.77 1.16,-1.71 0,-0.66 -0.32,-1.95 -0.56,-2.89 -0.25,-0.94 -0.6,-2.37 -0.77,-3.14 l -1.12,-4.46 c -0.14,-0.46 -0.34,-1.33 -0.34,-1.43 0,-0.77 0.62,-1.12 1.18,-1.12 0.63,0 1.19,0.46 1.36,0.77 0.17,0.31 0.45,1.43 0.63,2.16 0.17,0.66 0.56,2.27 0.76,3.14 0.21,0.76 0.43,1.53 0.6,2.33 0.38,1.5 0.38,1.57 1.08,2.65 1.12,1.71 2.86,3.7 5.58,3.7 1.95,0 2.06,-1.6 2.06,-2.44 0,-0.94 -0.07,-1.26 -0.25,-1.92 l -3.94,-15.65 c -0.14,-0.53 -0.14,-0.7 -0.14,-0.74 0,-0.76 0.63,-1.11 1.19,-1.11 1.25,0 1.57,1.18 1.67,1.67 z"
           inkscape:connector-curvature="0"
           style="fill:#000000;stroke-width:0" /><path
           id="path11599"
           d="m 523.2,422.21 -0.01,0.04 0,0.04 0,0.04 0,0.05 0,0.04 0,0.04 0,0.05 -0.01,0.04 0,0.04 -0.01,0.05 0,0.04 -0.01,0.05 -0.01,0.04 -0.01,0.05 -0.02,0.04 -0.01,0.04 -0.02,0.04 -0.02,0.04 -0.02,0.04 -0.02,0.03 -0.03,0.04 -0.03,0.03 -0.03,0.03 -0.02,0.01 -0.02,0.01 -0.02,0.02 -0.02,0.01 -0.02,0.01 -0.02,0.01 -0.02,0.01 -0.02,0.01 -0.03,0.01 -0.02,0.01 -0.03,0 -0.02,0.01 -0.03,0 -0.03,0.01 -0.03,0 -0.03,0 -0.03,0 -0.03,0.01 c -0.7,0 -0.7,-0.7 -0.7,-1.08 v -14.82 h -8.62 c -0.37,0 -1.07,0 -1.07,-0.69 0,-0.7 0.7,-0.7 1.07,-0.7 h 18.63 c 0.41,0 1.08,0 1.08,0.7 0,0.69 -0.67,0.69 -1.08,0.69 h -8.61 z"
           inkscape:connector-curvature="0"
           style="fill:#000000;stroke-width:0" /><path
           id="path11601"
           d="m 565.21,424.98 0.01,0.03 0.01,0.03 0.01,0.03 0.01,0.03 0.01,0.06 0.02,0.05 0.01,0.06 0.01,0.04 0.02,0.05 0.01,0.04 0.01,0.04 0.01,0.04 0,0.04 0.01,0.04 0.01,0.03 0,0.03 0.01,0.03 0.01,0.03 0,0.03 0,0.03 0.01,0.03 0,0.02 0,0.06 0.01,0.05 0,0.05 0,0.05 0,0.03 0,0.03 0,0.03 0,0.03 c 0,0.9 -0.7,1.35 -1.44,1.35 -0.5,0 -1.3,-0.3 -1.75,-1.05 -0.1,-0.24 -0.5,-1.79 -0.7,-2.69 -0.34,-1.29 -0.7,-2.64 -0.99,-3.98 l -2.25,-8.97 c -0.19,-0.74 -2.33,-4.23 -5.62,-4.23 -2.54,0 -3.09,2.19 -3.09,4.03 0,2.3 0.84,5.38 2.54,9.77 0.8,2.04 0.99,2.59 0.99,3.58 0,2.25 -1.59,4.09 -4.08,4.09 -4.73,0 -6.57,-7.23 -6.57,-7.67 0,-0.5 0.49,-0.5 0.59,-0.5 0.5,0 0.55,0.1 0.8,0.9 1.34,4.68 3.34,6.17 5.03,6.17 0.4,0 1.25,0 1.25,-1.59 0,-1.25 -0.5,-2.54 -0.85,-3.49 -1.99,-5.28 -2.89,-8.12 -2.89,-10.46 0,-4.43 3.14,-5.93 6.08,-5.93 1.94,0 3.63,0.85 5.03,2.25 -0.65,-2.6 -1.25,-5.04 -3.24,-7.68 -1.29,-1.69 -3.19,-3.14 -5.48,-3.14 -0.7,0 -2.94,0.16 -3.79,2.1 0.8,0 1.45,0 2.15,0.59 0.49,0.45 0.99,1.1 0.99,2.05 0,1.54 -1.34,1.74 -1.84,1.74 -1.15,0 -2.79,-0.8 -2.79,-3.24 0,-2.49 2.19,-4.33 5.28,-4.33 5.13,0 10.26,4.53 11.66,10.16 z"
           inkscape:connector-curvature="0"
           style="fill:#000000;stroke-width:0" /></g>    </g>
    <text
       xml:space="preserve"
       style="font-size:40px;font-style:normal;font-weight:normal;line-height:125%;letter-spacing:0px;word-spacing:0px;fill:#000000;fill-opacity:1;stroke:none;font-family:Sans"
       x="59.911701"
       y="440.97131"
       id="text4488"
       sodipodi:linespacing="125%"
       transform="translate(0,542.36218)"><tspan
         sodipodi:role="line"
         id="tspan4490"
         x="59.911701"
         y="440.97131" /></text>
  </g>
</svg>
